<svg width="207px" height="185px" viewBox="0 0 207 185" version="1.1" xmlns="http://www.w3.org/2000/svg" xmlns:xlink="http://www.w3.org/1999/xlink">
    <!-- Generator: Sketch 50.2 (55047) - http://www.bohemiancoding.com/sketch -->
    <title>Artboard</title>
    <desc>Created with Sketch.</desc>
    <defs></defs>
    <g id="Artboard" stroke="none" stroke-width="1" fill="none" fill-rule="evenodd">
        <g id="Bubbles/gift-and-heart" transform="translate(4.000000, 0.000000)">
            <g id="RAF-gift-and-heart">
                <g id="Double-Bubble" transform="translate(1.000000, 5.000000)">
                    <g id="Small-bubble" transform="translate(155.999783, 46.000000) scale(-1, 1) translate(-155.999783, -46.000000) translate(113.499783, 0.000000)">
                        <path d="M33.028428,83.9408949 C31.0259403,85.5116253 18.6810837,93.3915314 19.8441053,91.0854351 C21.0705361,88.653608 23.0892797,83.7203883 23.2594321,80.4056288 C9.45622998,73.3852477 0,59.046988 0,42.5001073 C0,19.0279462 19.0279462,0 42.5001073,0 C65.9722685,0 85.0002147,19.0279462 85.0002147,42.5001073 C85.0002147,65.9722685 65.9722685,85.0002147 42.5001073,85.0002147 C39.2444061,85.0002147 36.0742072,84.6341356 33.028428,83.9408949 Z" id="Background" fill="#FFFFFF"></path>
                        <path d="M69.1362719,9.46692304 C65.492066,6.48914812 61.2957076,4.062813 56.7680578,2.51878156 C34.7923917,-5.42195156 10.4976855,6.04799628 2.54669069,27.9953003 C-4.52086023,47.5162692 3.54056503,69.0224214 21.5407338,79.1689138 C22.2033167,79.8306415 20.8781509,84.6833118 18.7799717,89.535982 C18.6695412,89.7565579 18.6695412,89.9771339 18.7799717,90.1977098 C18.8904022,90.4182857 19.0008326,90.5285737 19.2216936,90.6388616 C19.3321241,90.7491496 19.5529851,90.7491496 19.773846,90.7491496 C21.0990118,90.7491496 23.418052,89.535982 27.6144103,86.9993589 C29.82302,85.6759034 33.1359345,83.8010081 33.9089479,83.8010081 C54.4490177,87.9919506 75.2099485,76.4117148 82.2774994,56.6701699 C84.927831,49.1705886 85.4799834,41.2298555 83.8235262,33.6199863 C80.7132045,20.5841828 73.0354509,12.9196779 69.1362719,9.46692304 Z M80.7314726,56.1187301 C73.8847827,75.0882593 53.8968653,86.2273432 34.2402393,82.1466887 C33.1359345,81.9261128 31.1481858,83.0289924 26.7309665,85.5656155 C24.8536482,86.6684951 22.3137471,88.1022385 20.7677204,88.7639663 C22.4241776,84.6833118 24.4119263,78.8380499 22.3137471,77.7351703 C5.08659179,67.9195418 -2.64354201,47.2956933 4.09271745,28.5467401 C10.0559635,12.0035461 25.7370921,1.63647788 42.412095,1.63647788 C46.9397448,1.63647788 51.5778251,2.4084936 56.1054749,4.062813 C61.0748467,5.82742036 65.492066,8.4743314 69.3571329,11.8932582 C70.9031597,13.2167137 72.3387559,14.6504572 73.5534912,16.1944886 C76.7559753,20.0545672 79.2958764,24.4660856 80.8419031,29.2084679 C81.1731946,30.3113475 81.3940555,31.1936512 81.6149165,32.1862428 C83.9339566,40.1269759 83.4922347,48.3985729 80.7314726,56.1187301 Z" id="Shape" stroke="#0077CC" stroke-width="0.931407942" fill="#0077CC" fill-rule="nonzero"></path>
                    </g>
                    <g id="Big-bubble-" transform="translate(0.000000, 26.500000)">
                        <path d="M53.3453513,134.305093 C50.1413791,136.818255 30.3896584,149.426073 32.2504883,145.736328 C34.2127726,141.845415 37.4427542,133.952283 37.7149974,128.648681 C15.6299298,117.4161 0.5,94.4749421 0.5,68 C0.5,30.444637 30.944637,0 68.5,0 C106.055363,0 136.5,30.444637 136.5,68 C136.5,105.555363 106.055363,136 68.5,136 C63.2908912,136 58.2185857,135.414275 53.3453513,134.305093 Z" id="Background" fill="#FFFFFF"></path>
                        <path d="M112.560706,15.4069751 C106.627578,10.5607855 99.7954901,6.61203841 92.4240273,4.09919935 C56.6454637,-8.82397292 17.0912729,9.84283148 4.14626497,45.5610437 C-7.36040874,77.3305089 5.76439096,112.330767 35.0704505,128.84371 C36.1492012,129.920641 33.9916999,137.818135 30.5756561,145.715629 C30.3958644,146.074606 30.3958644,146.433583 30.5756561,146.79256 C30.7554479,147.151537 30.9352397,147.331025 31.2948232,147.510514 C31.474615,147.690002 31.8341986,147.690002 32.1937821,147.690002 C34.3512834,147.690002 38.1269108,145.715629 44.9589983,141.587393 C48.5548338,139.433531 53.9485871,136.382227 55.2071295,136.382227 C88.6484,143.20279 122.449254,124.356497 133.955928,92.2280547 C138.27093,80.0228365 139.169889,67.0996642 136.473013,54.7149574 C131.4091,33.4997962 118.908956,21.0261724 112.560706,15.4069751 Z M131.438843,91.3306122 C120.291753,122.202635 87.7494411,140.330974 55.7465049,133.689899 C53.9485871,133.330922 50.7123351,135.125807 43.5206641,139.254043 C40.4642038,141.048928 36.328993,143.382278 33.8119081,144.459209 C36.5087848,137.818135 39.7450367,128.305244 36.328993,126.510359 C8.28147583,110.535882 -4.30394854,76.9715319 6.66334984,46.4584863 C16.3721058,19.5352107 41.9025381,2.66329132 69.0510963,2.66329132 C76.4225592,2.66329132 83.9738138,3.91971085 91.3452766,6.61203841 C99.4359066,9.48385447 106.627578,13.7915786 112.92029,19.3557222 C115.437375,21.5095842 117.774668,23.8429348 119.752377,26.3557738 C124.966339,32.6378715 129.10155,39.8174116 131.618635,47.5354173 C132.15801,49.3303023 132.517593,50.7662104 132.877177,52.3816069 C136.652804,65.3047792 135.933637,78.766417 131.438843,91.3306122 Z" id="Shape" fill="#0077CC" fill-rule="nonzero"></path>
                    </g>
                </g>
                <g id="b.friendship" transform="translate(30.000000, 56.500000)">
                    <path d="M51,32 L77.8518519,32 C79.0458745,32 80,32.8077746 80,33.6925441 L80,38.8982457 C80,39.7830152 79.0458745,40.5 77.8518519,40.5 L51,40.5 L51,32 Z" id="Shape" fill="#003580"></path>
                    <path d="M29,32 L2.14814815,32 C0.954125532,32 -1.75004044e-14,32.8077746 -1.75004044e-14,33.6925441 L-2.13162821e-14,38.8982457 C-2.13162821e-14,39.7830152 0.954125532,40.5 2.14814815,40.5 L29,40.5 L29,32 Z" id="Shape-Copy" fill="#003580"></path>
                    <path d="M33.5,81.5997497 L33.5,34.5748612 C33.5,33.2598371 34.8624148,32 36.0605547,32 L44.3327277,32 C45.5308676,32 46.5,33.2598371 46.5,34.5748612 L46.5,81.5997497 C46.5,82.9147739 45.5308676,84 44.3327277,84 L36.0605547,84 C34.8624148,84 33.5,83.2435299 33.5,81.5997497 Z" id="Shape" fill="#0077CC"></path>
                    <path d="M29.3716216,45.2221057 L29.3716216,80.0921631 L8.70569139,80.0921631 C5.99302769,80.0921631 3.26351351,78.0776519 3.26351351,75.0157241 L3.26351351,45.2221057 L29.3716216,45.2221057 Z" id="Shape" fill="#003580"></path>
                    <path d="M77.2364865,45.2221057 L77.2364865,80.0921631 L56.5705563,80.0921631 C53.8578926,80.0921631 51.1283784,78.0776519 51.1283784,75.0157241 L51.1283784,45.2221057 L77.2364865,45.2221057 Z" id="Shape-Copy-2" fill="#003580" transform="translate(64.182432, 62.657134) scale(-1, 1) translate(-64.182432, -62.657134) "></path>
                    <path d="M33.722973,26.6973877 C21.5418332,28.8530699 10.5282212,27.5027942 1.08783784,22.8834752 C2.00142332,21.9596114 2.89384695,21.0831157 3.80743243,20.1592519 C3.80743243,18.9274335 3.80743243,17.0323132 3.80743243,15.8004948 C8.98441684,19.1879954 20.6282477,26.0814785 33.722973,26.6973877 Z" id="Shape" fill="#0077CC"></path>
                    <path d="M60.2847292,3.51616553 C64.1904568,7.4779267 63.7368087,13.7133613 59.8310811,17.9798733 C55.9253535,21.6368837 46.5022901,21.7291288 40.7939189,22.3386305 C41.6952407,16.853115 41.2395426,7.23082905 45.1452703,3.26906788 C49.3514385,-0.692693291 56.078561,-0.445595646 60.2847292,3.51616553 Z M47.6662246,16.3157016 C51.2715116,16.0109508 54.8767986,15.401449 56.078561,14.1824456 C57.8812045,12.3539404 57.8812045,9.61118271 56.078561,7.78267756 C54.2759175,5.9541724 51.5719522,5.9541724 49.7693087,7.78267756 C48.5675463,8.69693013 47.9666652,12.6586913 47.6662246,16.3157016 Z" id="Shape" fill="#0077CC"></path>
                    <path d="M22.3006757,7.62782505 C18.9129825,10.6503288 18.9129825,16.2896531 22.3006757,19.6144073 C24.3538231,21.6294098 29.6117059,22.900714 38.0743243,23.4283198 C37.7944982,14.9096592 36.525354,9.64282758 34.2668919,7.62782505 C30.8791987,4.30307089 25.6883689,4.30307089 22.3006757,7.62782505 Z M33.2142419,18.1220579 C30.1345208,17.8198075 27.0547997,17.5175571 26.1308834,16.610806 C24.5910229,15.0995541 24.5910229,12.681551 26.1308834,11.1702992 C27.670744,9.96129764 30.1345208,9.96129764 31.3664093,11.1702992 C32.2903256,12.0770503 32.9062698,15.4018045 33.2142419,18.1220579 Z" id="Shape" fill="#0077CC"></path>
                    <path d="M46.777027,26.6973877 C58.5259087,28.8530699 68.9854696,27.5027942 78.3243243,22.8834752 C77.4205642,21.9596114 76.5084899,21.0831157 75.6047297,20.1592519 C75.6047297,18.9274335 76.1486486,17.0323132 76.1486486,15.8004948 C71.0273412,19.1879954 59.4296689,26.0814785 46.777027,26.6973877 Z" id="Shape" fill="#0077CC"></path>
                </g>
            </g>
        </g>
        <g id="close_circle" transform="translate(136.000000, 23.000000)" fill="#FF0202" fill-rule="nonzero">
            <path d="M25,-1.96668079e-15 C11.1928813,-4.34573012e-15 -1.96668079e-15,11.1928813 -3.55271368e-15,25 C-5.13874657e-15,38.8071187 11.1928813,50 25,50 C38.8071187,50 50,38.8071187 50,25 C50,18.3695878 47.366079,12.0107399 42.6776695,7.32233047 C37.9892601,2.63392101 31.6304122,-2.75969723e-15 25,-1.96668079e-15 Z M34.9107143,31.1607143 C35.7491803,31.7895638 36.1438518,32.8496668 35.9207577,33.8737302 C35.6976636,34.8977936 34.8977936,35.6976636 33.8737302,35.9207577 C32.8496668,36.1438518 31.7895638,35.7491803 31.1607143,34.9107143 L25,28.7946429 L18.8392857,34.9107143 C17.7728921,35.7105095 16.2806746,35.6044609 15.3381068,34.6618932 C14.3955391,33.7193254 14.2894905,32.2271079 15.0892857,31.1607143 L21.2053571,25 L15.0892857,18.8392857 C14.2894905,17.7728921 14.3955391,16.2806746 15.3381068,15.3381068 C16.2806746,14.3955391 17.7728921,14.2894905 18.8392857,15.0892857 L25,21.2053571 L31.1607143,15.0892857 C32.2271079,14.2894905 33.7193254,14.3955391 34.6618932,15.3381068 C35.6044609,16.2806746 35.7105095,17.7728921 34.9107143,18.8392857 L28.7946429,25 L34.9107143,31.1607143 Z" id="Shape"></path>
        </g>
    </g>
</svg>