<svg xmlns="http://www.w3.org/2000/svg" width="309" height="215" viewBox="0 0 309 215">
  <g fill="none" fill-rule="evenodd">
    <path fill="#07C" fill-rule="nonzero" d="M299.21705,71.4259321 L297.03432,71.4259321 L297.03432,69.2412664 C297.03432,68.4468425 296.43903,67.8510245 295.64531,67.8510245 C294.85159,67.8510245 294.256299,68.4468425 294.256299,69.2412664 L294.256299,71.4259321 L292.073569,71.4259321 C291.279849,71.4259321 290.684559,72.0217501 290.684559,72.816174 C290.684559,73.6105979 291.279849,74.2064159 292.073569,74.2064159 L294.256299,74.2064159 L294.256299,76.3910816 C294.256299,77.1855055 294.85159,77.7813235 295.64531,77.7813235 C296.43903,77.7813235 297.03432,77.1855055 297.03432,76.3910816 L297.03432,74.2064159 L299.21705,74.2064159 C300.01077,74.2064159 300.606061,73.6105979 300.606061,72.816174 C300.606061,72.0217501 300.01077,71.4259321 299.21705,71.4259321 Z"/>
    <path fill="#FF6C6C" fill-rule="nonzero" d="M35.1951044 89.9751604L33.4949138 89.9751604 33.4949138 88.2646783C33.4949138 87.6945176 33.0698661 87.3144105 32.4322947 87.3144105 31.7947232 87.3144105 31.3696756 87.6945176 31.3696756 88.2646783L31.3696756 89.9751604 29.2444373 89.9751604C28.6068658 89.9751604 28.1818182 90.3552676 28.1818182 90.9254283 28.1818182 91.495589 28.6068658 91.8756961 29.2444373 91.8756961L31.1571517 91.8756961 31.1571517 93.5861782C31.1571517 94.1563389 31.5821994 94.5364461 32.2197709 94.5364461 32.8573423 94.5364461 33.28239 94.1563389 33.28239 93.5861782L33.28239 92.0657497 35.1951044 92.0657497C35.8326759 92.0657497 36.2577235 91.6856426 36.2577235 91.1154819 36.4702473 90.3552676 35.8326759 89.9751604 35.1951044 89.9751604zM294.519857 3.0091815L292.565622 3.0091815 292.565622 1.05321353C292.565622.451377225 292.114645 0 291.513342 0 290.912039 0 290.461061.451377225 290.461061 1.05321353L290.461061 3.0091815 288.506826 3.0091815C287.905523 3.0091815 287.454545 3.46055873 287.454545 4.06239503 287.454545 4.66423133 287.905523 5.11560855 288.506826 5.11560855L290.461061 5.11560855 290.461061 7.07157653C290.461061 7.67341283 290.912039 8.12479006 291.513342 8.12479006 292.114645 8.12479006 292.565622 7.67341283 292.565622 7.07157653L292.565622 5.11560855 294.519857 5.11560855C295.12116 5.11560855 295.572138 4.66423133 295.572138 4.06239503 295.572138 3.46055873 295.12116 3.0091815 294.519857 3.0091815zM57.6017147 13.4008883L54.9960678 13.4008883 54.9960678 10.792931C54.9960678 9.99048259 54.3947647 9.38864629 53.5930271 9.38864629 52.7912896 9.38864629 52.1899865 9.99048259 52.1899865 10.792931L52.1899865 13.4008883 49.5843395 13.4008883C48.782602 13.4008883 48.1812989 14.0027246 48.1812989 14.805173 48.1812989 15.6076214 48.782602 16.2094577 49.5843395 16.2094577L52.1899865 16.2094577 52.1899865 18.817415C52.1899865 19.6198634 52.7912896 20.2216997 53.5930271 20.2216997 54.3947647 20.2216997 54.9960678 19.6198634 54.9960678 18.817415L54.9960678 16.2094577 57.6017147 16.2094577C58.4034523 16.2094577 59.0047554 15.6076214 59.0047554 14.805173 59.0047554 14.0027246 58.4034523 13.4008883 57.6017147 13.4008883z"/>
    <ellipse cx="3.909" cy="67.58" fill="#07C" fill-rule="nonzero" rx="3.157" ry="3.16"/>
    <ellipse cx="203.981" cy="209.945" fill="#07C" fill-rule="nonzero" rx="1.804" ry="1.806"/>
    <ellipse cx="285.157" cy="126.711" fill="#07C" fill-rule="nonzero" rx="2.706" ry="2.708"/>
    <g fill="#07C" fill-rule="nonzero" transform="translate(266.89 155.96)">
      <path d="M26.3030303 1.14072056C26.3030303.570360278 25.7872846 0 24.9277085 0L1.37532185 0C.687660923 0 0 .427770208 0 1.14072056 0 1.71108083.515745692 2.28144111 1.37532185 2.28144111L24.9277085 2.28144111C25.7872846 2.13885104 26.3030303 1.71108083 26.3030303 1.14072056zM40.0962593 0L32.4043062 0C31.7050377 0 31.0057693.428649691 31.0057693 1.14306584 31.0057693 1.71459877 31.5302206 2.28613169 32.4043062 2.28613169L40.0962593 2.28613169C40.7955277 2.28613169 41.4947962 1.857482 41.4947962 1.14306584 41.3199791.571532922 40.7955277 0 40.0962593 0zM40.1116278 7.62043896L23.5136072 7.62043896C22.822023 7.62043896 22.1304388 8.04908865 22.1304388 8.7635048 22.1304388 9.47792095 22.649127 9.90657065 23.5136072 9.90657065L40.1116278 9.90657065C40.803212 9.90657065 41.4947962 9.47792095 41.4947962 8.7635048 41.4947962 8.04908865 40.803212 7.62043896 40.1116278 7.62043896zM16.722839 7.62043896L11.4010741 7.62043896C10.7143948 7.62043896 10.0277154 8.04908865 10.0277154 8.7635048 10.0277154 9.47792095 10.542725 9.90657065 11.4010741 9.90657065L16.722839 9.90657065C17.4095184 9.90657065 18.0961977 9.47792095 18.0961977 8.7635048 18.0961977 8.04908865 17.4095184 7.62043896 16.722839 7.62043896z"/>
    </g>
    <g fill="#07C" fill-rule="nonzero" transform="matrix(-1 0 0 1 88.31 48.821)">
      <path d="M25.4163396 1.14306584C25.4163396.571532922 24.91798 0 24.0873807 0L1.32895893 0C.664479466 0 0 .428649691 0 1.14306584 0 1.71459877.4983596 2.28613169 1.32895893 2.28613169L24.0873807 2.28613169C24.91798 2.14324846 25.4163396 1.71459877 25.4163396 1.14306584zM39.1305728 0L31.5586216 0C30.8702625 0 30.1819033.428649691 30.1819033 1.14306584 30.1819033 1.71459877 30.6981727 2.28613169 31.5586216 2.28613169L39.1305728 2.28613169C39.818932 2.28613169 40.5072912 1.857482 40.5072912 1.14306584 40.3352014.571532922 39.818932 0 39.1305728 0zM39.1457016 7.62043896L22.8066261 7.62043896C22.1258313 7.62043896 21.4450365 8.04908865 21.4450365 8.7635048 21.4450365 9.47792095 21.9556326 9.90657065 22.8066261 9.90657065L39.1457016 9.90657065C39.8264964 9.90657065 40.5072912 9.47792095 40.5072912 8.7635048 40.5072912 8.04908865 39.8264964 7.62043896 39.1457016 7.62043896zM16.1218005 7.62043896L10.8830603 7.62043896C10.2070938 7.62043896 9.53112734 8.04908865 9.53112734 8.7635048 9.53112734 9.47792095 10.0381022 9.90657065 10.8830603 9.90657065L16.1218005 9.90657065C16.797767 9.90657065 17.4737335 9.47792095 17.4737335 8.7635048 17.4737335 8.04908865 16.797767 7.62043896 16.1218005 7.62043896z"/>
    </g>
    <g transform="translate(27.242 81.681)">
      <path fill="#003580" fill-rule="nonzero" d="M232.381275,125.564777 L232.381275,37.2692267 C232.381275,32.2666459 228.400439,28.2645813 223.424395,28.2645813 L170.927126,28.2645813 L170.927126,125.564777 L166.946291,125.564777 L166.946291,8.50438729 C166.946291,3.75193557 163.214257,0 158.487015,0 L88.0759865,0 C83.3487442,0 79.6167109,3.75193557 79.6167109,8.50438729 L79.6167109,125.564777 L75.6358754,125.564777 L75.6358754,28.2645813 L23.1386066,28.2645813 C18.1625622,28.2645813 14.1817266,32.2666459 14.1817266,37.2692267 L14.1817266,125.564777 L0,125.564777 L0,133.318777 L247.060606,133.318777 L247.060606,125.564777 L232.381275,125.564777 Z"/>
      <path fill="#CCE1FF" d="M37.7284669,112.53512 L28.1526126,112.53512 L28.1526126,112.53512 C26.7196442,112.53512 25.5579937,111.373469 25.5579937,109.940501 L25.5579937,102.898658 L25.5579937,102.898658 C25.5579937,101.465689 26.7196442,100.304039 28.1526126,100.304039 L35.1338481,100.304039 L35.1338481,100.304039 C36.5668165,100.304039 37.7284669,101.465689 37.7284669,102.898658 L37.7284669,112.53512 Z"/>
      <path fill="#07C" d="M35.1338481,84.4036344 L28.1526126,84.4036344 L28.1526126,84.4036344 C26.7196442,84.4036344 25.5579937,83.241984 25.5579937,81.8090156 L25.5579937,74.7671727 L25.5579937,74.7671727 C25.5579937,73.3342043 26.7196442,72.1725539 28.1526126,72.1725539 L35.1338481,72.1725539 L35.1338481,72.1725539 C36.5668165,72.1725539 37.7284669,73.3342043 37.7284669,74.7671727 L37.7284669,81.8090156 L37.7284669,81.8090156 C37.7284669,83.241984 36.5668165,84.4036344 35.1338481,84.4036344 Z"/>
      <path fill="#CCE1FF" d="M35.1338481,56.2629702 L28.1526126,56.2629702 L28.1526126,56.2629702 C26.7196442,56.2629702 25.5579937,55.1013198 25.5579937,53.6683514 L25.5579937,46.6265086 L25.5579937,46.6265086 C25.5579937,45.1935402 26.7196442,44.0318897 28.1526126,44.0318897 L35.1338481,44.0318897 L35.1338481,44.0318897 C36.5668165,44.0318897 37.7284669,45.1935402 37.7284669,46.6265086 L37.7284669,53.6683514 L37.7284669,53.6683514 C37.7284669,55.1013198 36.5668165,56.2629702 35.1338481,56.2629702 Z"/>
      <path fill="#07C" d="M60.6918418,112.53512 L53.7106063,112.53512 L53.7106063,112.53512 C52.2776379,112.53512 51.1159875,111.373469 51.1159875,109.940501 L51.1159875,102.898658 L51.1159875,102.898658 C51.1159875,101.465689 52.2776379,100.304039 53.7106063,100.304039 L60.6918418,100.304039 L60.6918418,100.304039 C62.1248102,100.304039 63.2864607,101.465689 63.2864607,102.898658 L63.2864607,109.940501 L63.2864607,109.940501 C63.2864607,111.373469 62.1248102,112.53512 60.6918418,112.53512 Z"/>
      <path fill="#CCE1FF" d="M60.6918418,84.4036344 L53.7106063,84.4036344 L53.7106063,84.4036344 C52.2776379,84.4036344 51.1159875,83.241984 51.1159875,81.8090156 L51.1159875,74.7671727 L51.1159875,74.7671727 C51.1159875,73.3342043 52.2776379,72.1725539 53.7106063,72.1725539 L60.6918418,72.1725539 L60.6918418,72.1725539 C62.1248102,72.1725539 63.2864607,73.3342043 63.2864607,74.7671727 L63.2864607,81.8090156 L63.2864607,81.8090156 C63.2864607,83.241984 62.1248102,84.4036344 60.6918418,84.4036344 Z"/>
      <path fill="#07C" d="M60.6918418 56.2629702L53.7106063 56.2629702 53.7106063 56.2629702C52.2776379 56.2629702 51.1159875 55.1013198 51.1159875 53.6683514L51.1159875 46.6265086 51.1159875 46.6265086C51.1159875 45.1935402 52.2776379 44.0318897 53.7106063 44.0318897L60.6918418 44.0318897 60.6918418 44.0318897C62.1248102 44.0318897 63.2864607 45.1935402 63.2864607 46.6265086L63.2864607 53.6683514 63.2864607 53.6683514C63.2864607 55.1013198 62.1248102 56.2629702 60.6918418 56.2629702zM92.4955964 48.9243219L102.071451 48.9243219 102.071451 48.9243219C103.504419 48.9243219 104.66607 50.0859724 104.66607 51.5189408L104.66607 74.4611882 104.66607 74.4611882C104.66607 75.8941566 103.504419 77.0558071 102.071451 77.0558071L95.0902152 77.0558071 95.0902152 77.0558071C93.6572468 77.0558071 92.4955964 75.8941566 92.4955964 74.4611882L92.4955964 48.9243219z"/>
      <path fill="#E9F0FA" d="M117.893066,124.757021 L103.609546,124.757021 L103.609546,124.757021 C102.176578,124.757021 101.014928,123.595371 101.014928,122.162402 L101.014928,91.8815064 L101.014928,91.8815064 C101.014928,90.448538 102.176578,89.2868875 103.609546,89.2868875 L117.893066,89.2868875 L117.893066,89.2868875 C119.326034,89.2868875 120.487685,90.448538 120.487685,91.8815064 L120.487685,122.162402 L120.487685,122.162402 C120.487685,123.595371 119.326034,124.757021 117.893066,124.757021 Z"/>
      <path fill="#07C" d="M116.836543,74.4611882 L116.836543,51.5189408 L116.836543,51.5189408 C116.836543,50.0859724 117.998193,48.9243219 119.431162,48.9243219 L126.412397,48.9243219 L126.412397,48.9243219 C127.845366,48.9243219 129.007016,50.0859724 129.007016,51.5189408 L129.007016,74.4611882 L129.007016,74.4611882 C129.007016,75.8941566 127.845366,77.0558071 126.412397,77.0558071 L119.431162,77.0558071 L119.431162,77.0558071 C117.998193,77.0558071 116.836543,75.8941566 116.836543,74.4611882 Z"/>
      <path fill="#E9F0FA" d="M142.234012,124.757021 L127.950493,124.757021 L127.950493,124.757021 C126.517524,124.757021 125.355874,123.595371 125.355874,122.162402 L125.355874,91.8815064 L125.355874,91.8815064 C125.355874,90.448538 126.517524,89.2868875 127.950493,89.2868875 L142.234012,89.2868875 L142.234012,89.2868875 C143.666981,89.2868875 144.828631,90.448538 144.828631,91.8815064 L144.828631,122.162402 L144.828631,122.162402 C144.828631,123.595371 143.666981,124.757021 142.234012,124.757021 Z"/>
      <path fill="#07C" d="M150.753344,77.0558071 L143.772108,77.0558071 L143.772108,77.0558071 C142.33914,77.0558071 141.177489,75.8941566 141.177489,74.4611882 L141.177489,51.5189408 L141.177489,51.5189408 C141.177489,50.0859724 142.33914,48.9243219 143.772108,48.9243219 L150.753344,48.9243219 L150.753344,48.9243219 C152.186312,48.9243219 153.347962,50.0859724 153.347962,51.5189408 L153.347962,74.4611882 L153.347962,74.4611882 C153.347962,75.8941566 152.186312,77.0558071 150.753344,77.0558071 Z"/>
      <polygon fill="#CCE1FF" points="152.131 12.965 91.279 12.965 91.279 11.008 152.131 11.008"/>
      <path fill="#07C" d="M194.727571,112.52594 L185.151717,112.52594 L185.151717,112.52594 C183.718748,112.52594 182.557098,111.36429 182.557098,109.931322 L182.557098,102.889479 L182.557098,102.889479 C182.557098,101.45651 183.718748,100.29486 185.151717,100.29486 L192.132952,100.29486 L192.132952,100.29486 C193.565921,100.29486 194.727571,101.45651 194.727571,102.889479 L194.727571,112.52594 Z"/>
      <path fill="#CCE1FF" d="M192.132952 84.3944554L185.151717 84.3944554 185.151717 84.3944554C183.718748 84.3944554 182.557098 83.2328049 182.557098 81.7998365L182.557098 74.7579937 182.557098 74.7579937C182.557098 73.3250253 183.718748 72.1633749 185.151717 72.1633749L192.132952 72.1633749 192.132952 72.1633749C193.565921 72.1633749 194.727571 73.3250253 194.727571 74.7579937L194.727571 81.7998365 194.727571 81.7998365C194.727571 83.2328049 193.565921 84.3944554 192.132952 84.3944554zM192.132952 56.2537912L185.151717 56.2537912 185.151717 56.2537912C183.718748 56.2537912 182.557098 55.0921408 182.557098 53.6591724L182.557098 46.6173295 182.557098 46.6173295C182.557098 45.1843611 183.718748 44.0227107 185.151717 44.0227107L192.132952 44.0227107 192.132952 44.0227107C193.565921 44.0227107 194.727571 45.1843611 194.727571 46.6173295L194.727571 53.6591724 194.727571 53.6591724C194.727571 55.0921408 193.565921 56.2537912 192.132952 56.2537912zM217.690946 112.52594L210.709711 112.52594 210.709711 112.52594C209.276742 112.52594 208.115092 111.36429 208.115092 109.931322L208.115092 102.889479 208.115092 102.889479C208.115092 101.45651 209.276742 100.29486 210.709711 100.29486L217.690946 100.29486 217.690946 100.29486C219.123915 100.29486 220.285565 101.45651 220.285565 102.889479L220.285565 109.931322 220.285565 109.931322C220.285565 111.36429 219.123915 112.52594 217.690946 112.52594zM217.690946 84.3944554L210.709711 84.3944554 210.709711 84.3944554C209.276742 84.3944554 208.115092 83.2328049 208.115092 81.7998365L208.115092 74.7579937 208.115092 74.7579937C208.115092 73.3250253 209.276742 72.1633749 210.709711 72.1633749L217.690946 72.1633749 217.690946 72.1633749C219.123915 72.1633749 220.285565 73.3250253 220.285565 74.7579937L220.285565 81.7998365 220.285565 81.7998365C220.285565 83.2328049 219.123915 84.3944554 217.690946 84.3944554z"/>
      <path fill="#07C" d="M217.690946,56.2537912 L210.709711,56.2537912 L210.709711,56.2537912 C209.276742,56.2537912 208.115092,55.0921408 208.115092,53.6591724 L208.115092,46.6173295 L208.115092,46.6173295 C208.115092,45.1843611 209.276742,44.0227107 210.709711,44.0227107 L217.690946,44.0227107 L217.690946,44.0227107 C219.123915,44.0227107 220.285565,45.1843611 220.285565,46.6173295 L220.285565,53.6591724 L220.285565,53.6591724 C220.285565,55.0921408 219.123915,56.2537912 217.690946,56.2537912 Z"/>
    </g>
    <g transform="translate(195.394 1.878)">
      <g fill="#003580">
        <path d="M24.9723269,62.1834548 C27.2536129,62.6970078 29.6280892,62.9681993 32.0666066,62.9681993 C49.6472351,62.9681993 63.8991504,48.8722878 63.8991504,31.4840997 C63.8991504,14.0959116 49.6472351,0 32.0666066,0 C14.4859781,0 0.234062822,14.0959116 0.234062822,31.4840997 C0.234062822,43.7420367 7.31677094,54.3638263 17.6553575,59.564528 C17.5279134,62.0201033 16.0158762,65.6746349 15.0972806,67.4761335 C14.2261784,69.1844907 23.4724654,63.3470526 24.9723269,62.1834548 Z"/>
        <path fill-rule="nonzero" d="M52.6925531,7.13345205 C49.9151035,4.88965916 46.7168281,3.06138347 43.2660573,1.89793531 C26.5171942,-4.0855124 8.00086313,4.5572454 1.94097296,21.09483 C-3.44559608,35.804139 2.69845923,52.0093099 16.4173773,59.6548264 C16.9223681,60.153447 15.9123864,63.8099984 14.3132487,67.4665498 C14.2290836,67.6327566 14.2290836,67.7989635 14.3132487,67.9651704 C14.3974139,68.1313773 14.481579,68.2144807 14.6499093,68.2975842 C14.7340744,68.3806876 14.9024047,68.3806876 15.070735,68.3806876 C16.0807167,68.3806876 17.8481847,67.4665498 21.04646,65.5551706 C22.7297628,64.5579294 25.2547171,63.1451709 25.8438731,63.1451709 C41.4985893,66.3031016 57.3216359,57.5772404 62.7082049,42.7017245 C64.7281683,37.0506906 65.148994,31.0672429 63.8865169,25.3331055 C61.5159698,15.5104547 55.6643318,9.73514863 52.6925531,7.13345205 Z M61.529893,42.2862073 C56.3116542,56.5799991 41.0777636,64.9734466 26.0963685,61.8986193 C25.2547171,61.7324124 23.7397445,62.5634468 20.3731389,64.4748259 C18.9423315,65.3058603 17.0065332,66.386205 15.8282213,66.8848257 C17.0906984,63.8099984 18.6056709,59.405516 17.0065332,58.5744816 C3.87677121,51.1782755 -2.01478868,35.6379321 3.11928494,21.5103472 C7.66420256,9.04483118 19.6156526,1.23310779 32.3245889,1.23310779 C35.7753597,1.23310779 39.3102957,1.81483187 42.7610665,3.06138347 C46.5484978,4.39103852 49.9151035,6.38552109 52.8608834,8.96172774 C54.0391954,9.95896903 55.1333422,11.0393138 56.0591588,12.2027619 C58.4999479,15.1113823 60.4357461,18.4355199 61.6140581,22.0089679 C61.8665535,22.8400023 62.0348838,23.5048298 62.2032141,24.2527608 C63.970682,30.2362085 63.6340215,36.4689665 61.529893,42.2862073 Z"/>
      </g>
      <g transform="translate(12.212 7.51)">
        <ellipse cx="34.531" cy="34.511" fill="#2FAAE1" rx="3.369" ry="3.367"/>
        <path fill="#FFF" d="M24.012372,22.59415 L24.6905818,21.9845948 C25.4782338,21.2719916 26.799831,19.6686344 26.799831,16.8968175 C26.799831,12.6561298 23.6774126,10.1008884 18.8453748,10.1008884 L13.6833523,10.1008884 L13.3284943,10.1008884 L13.0565471,10.1008884 C11.6238496,10.1218473 10.1065831,11.6937662 10.1065831,13.208048 L10.1065831,14.5336995 L10.1065831,34.1093286 L10.1065831,37.0365909 L12.6370188,37.0365909 L18.9531588,37.0365909 C24.3241163,37.0365909 27.7931016,33.7058694 27.7931016,28.9377156 C27.7947598,26.3650086 26.6887305,24.0944592 24.8646944,23.0465133 L24.012372,22.59415 L24.012372,22.59415 Z M15.0596121,17.7572229 L15.0596121,17.7572229 L15.0596121,16.3337631 C15.0596121,15.0902006 15.560393,14.4963646 16.6581311,14.4230084 L18.8536074,14.4230084 C20.7373394,14.4230084 21.838394,15.6456119 21.838394,17.5965379 C21.838394,19.1108197 21.0656659,20.556985 18.8950628,20.556985 L15.0596121,20.556985 L15.0596121,17.7572229 L15.0596121,17.7572229 Z M15.0596121,31.8763652 L15.0596121,28.2731779 L15.0596121,26.8497182 C15.0596121,25.6934844 15.4857733,25.0944087 16.4259811,24.9581758 L19.3527301,24.9581758 C21.4420807,24.9581758 22.8349811,26.355437 22.8349811,28.6259864 C22.7902093,30.9262276 21.5084094,31.8763649 19.3527302,31.8763649 L15.0596121,31.8763652 L15.0596121,31.8763652 Z"/>
      </g>
    </g>
  </g>
</svg>
