<svg xmlns="http://www.w3.org/2000/svg" width="237" height="208" viewBox="0 0 237 208">
  <g fill="none" fill-rule="evenodd">
    <path fill="#07C" fill-rule="nonzero" d="M195.94441,101.352841 C196.803758,101.352841 200.670821,103.708501 203.248863,105.207558 C208.404947,108.205671 211.197826,109.704727 212.916521,109.704727 C213.131358,109.704727 213.561032,109.704727 213.775868,109.490576 C214.205542,109.276425 214.635216,109.062274 214.635216,108.633972 C214.850053,108.205671 214.850053,107.777369 214.635216,107.349067 C212.486847,102.423596 210.982989,97.0698226 211.197826,95.5707662 C232.896347,83.1500127 242.349169,57.2377512 233.970532,33.8953008 C224.517711,7.34058651 195.085063,-6.57922339 168.445294,3.05756808 C148.465468,10.1245485 134.930747,29.3981314 134.501073,50.1707708 C127.411457,44.3886959 119.247657,39.6773757 110.439346,36.6792628 C67.6868146,21.2603964 20.4227089,43.5320923 4.95445618,86.1481256 C-8.79510182,124.052839 6.88798778,165.812268 41.9063933,185.514153 C43.1954144,186.799059 40.6173723,196.221699 36.5354722,205.64434 C36.3206354,206.072642 36.3206354,206.500944 36.5354722,206.929245 C36.7503091,207.357547 36.9651459,207.571698 37.3948196,207.785849 C37.6096564,208 38.0393301,208 38.4690038,208 C41.0470459,208 45.5586197,205.64434 53.7224197,200.718869 C58.0191566,198.149058 64.4642619,194.508492 65.9681198,194.508492 C105.927773,202.646227 146.317099,180.16038 160.066657,141.827365 C165.222742,127.265103 166.296926,111.846236 163.074373,97.0698226 C173.386542,101.995294 184.987731,103.708501 195.94441,101.352841 Z M169.519479,6.05568098 C194.440552,-2.93865772 221.939668,10.1245485 230.962816,34.9660554 C238.911779,57.0236003 229.888632,81.4368054 209.479131,92.7868042 C207.330763,94.0717097 207.760437,98.1405772 210.338479,105.207558 C208.619784,104.350954 206.256579,103.066048 204.752721,102.209445 C199.811474,99.2113319 197.448268,97.9264263 195.94441,97.9264263 C195.729573,97.9264263 195.514737,97.9264263 195.514737,97.9264263 C184.128384,100.282086 172.312358,98.3547282 162.215026,92.7868042 C162.000189,91.7160496 161.570515,90.8594459 161.355678,89.7886913 C161.140842,88.9320876 160.926005,88.0754839 160.711168,87.4330312 C160.281494,86.3622766 159.851821,85.077371 159.422147,84.0066164 C159.20731,83.3641637 158.777636,82.50756 158.5628,81.8651072 C158.133126,80.5802017 157.488615,79.5094471 156.844105,78.2245415 C156.629268,77.5820888 156.199594,76.939636 155.984757,76.2971832 C155.12541,74.5839759 154.266063,73.0849194 153.191878,71.3717121 C152.977042,71.1575611 152.762205,70.9434102 152.762205,70.5151084 C151.902857,69.0160519 150.828673,67.5169955 149.754489,66.017939 C149.324815,65.3754863 148.895142,64.7330335 148.465468,64.3047316 C147.60612,63.233977 146.96161,62.3773733 146.102263,61.3066187 C145.457752,60.664166 145.028078,60.0217132 144.383568,59.3792604 C143.52422,58.5226568 142.87971,57.6660531 142.020363,56.8094494 C141.375852,56.1669966 140.731341,55.5245439 140.086831,54.8820911 C139.44232,54.2396383 138.582973,53.3830346 137.938462,52.7405819 C137.079115,32.3962443 149.969326,13.1226614 169.519479,6.05568098 Z M157.058942,140.756611 C143.739057,177.590569 104.853589,199.219812 66.6126304,191.296228 C64.4642619,190.867926 60.5971987,193.009435 52.003725,197.934907 C48.3514986,200.076416 43.4102512,202.860378 40.4025354,204.145283 C43.6250881,196.221699 47.4921513,184.8717 43.4102512,182.730191 C9.89570359,163.670759 -5.14287548,123.624537 7.96217199,87.2188802 C19.5633616,55.096242 50.0701934,34.9660554 82.5105568,34.9660554 C91.3188674,34.9660554 100.342015,36.4651118 109.150325,39.6773757 C118.817983,43.1037904 127.411457,48.2434125 134.930747,54.8820911 C137.938462,57.4519022 140.731341,60.2358641 143.094547,63.233977 C149.324815,70.7292593 154.266063,79.2952962 157.273778,88.5037858 C157.918289,90.645295 158.347963,92.3585024 158.777636,94.2858607 C163.28921,109.704727 162.429863,125.766046 157.058942,140.756611 Z"/>
    <g transform="translate(162.485 24.713)">
      <path fill="#003580" d="M30.3494541 18.9949913L46.3286511 18.9949913C47.0391989 18.9949913 47.6069869 19.474481 47.6069869 19.9996744L47.6069869 23.0897449C47.6069869 23.6149383 47.0391989 24.0405358 46.3286511 24.0405358L30.3494541 24.0405358 30.3494541 18.9949913zM17.2575328 18.9949913L1.27833576 18.9949913C.567788021 18.9949913-1.90455016e-14 19.474481-1.90455016e-14 19.9996744L-2.13162821e-14 23.0897449C-2.13162821e-14 23.6149383.567788021 24.0405358 1.27833576 24.0405358L17.2575328 24.0405358 17.2575328 18.9949913z"/>
      <path fill="#07C" d="M19.9354258,48.4370792 L19.9354258,20.5234121 C19.9354258,19.7428224 20.7461816,18.9949913 21.4591795,18.9949913 L26.3818448,18.9949913 C27.0948427,18.9949913 27.6715611,19.7428224 27.6715611,20.5234121 L27.6715611,48.4370792 C27.6715611,49.2176689 27.0948427,49.8618521 26.3818448,49.8618521 L21.4591795,49.8618521 C20.7461816,49.8618521 19.9354258,49.4128163 19.9354258,48.4370792 Z"/>
      <path fill="#003580" d="M17.4786801,26.8435469 L17.4786801,47.5421856 L5.1806467,47.5421856 C3.56637489,47.5421856 1.94207556,46.3463848 1.94207556,44.5288445 L1.94207556,26.8435469 L17.4786801,26.8435469 Z"/>
      <path fill="#003580" d="M45.962455,26.8435469 L45.962455,47.5421856 L33.6644216,47.5421856 C32.0501498,47.5421856 30.4258505,46.3463848 30.4258505,44.5288445 L30.4258505,26.8435469 L45.962455,26.8435469 Z" transform="matrix(-1 0 0 1 76.388 0)"/>
      <path fill="#07C" d="M20.0681142 15.8473952C12.8192721 17.1269941 6.26521109 16.3254792.647358521 13.5834816 1.19102167 13.0350821 1.72209167 12.5148 2.26575482 11.9664004 2.26575482 11.2352011 2.26575482 10.11027 2.26575482 9.37907062 5.34651269 11.3898689 12.275609 15.4817955 20.0681142 15.8473952zM35.8746789 2.08717292C38.198928 4.43884851 37.9289677 8.14016182 35.6047187 10.6727355 33.2804696 12.843513 27.6729239 12.8982691 24.2759445 13.2600654 24.8123097 10.0038992 24.5411296 4.29217296 26.8653786 1.94049737 29.3684161-.411178219 33.3716415-.264502669 35.8746789 2.08717292zM28.3655666 9.68489405C30.5110273 9.50399593 32.6564879 9.14219969 33.3716415 8.4186072 34.4443718 7.33321846 34.4443718 5.70513536 33.3716415 4.61974663 32.2989112 3.5343579 30.6898157 3.5343579 29.6170853 4.61974663 28.9019318 5.162441 28.544355 7.51411659 28.3655666 9.68489405zM13.2708497 4.5278272C11.2548764 6.32196573 11.2548764 9.66943183 13.2708497 11.6429842 14.4926517 12.8390766 17.6215512 13.5937144 22.6575482 13.9068978 22.4910272 8.85027643 21.7357756 5.72391955 20.3917934 4.5278272 18.3758201 2.55427481 15.286823 2.55427481 13.2708497 4.5278272zM19.7653747 10.7571353C17.9326717 10.5777215 16.0999687 10.3983076 15.5501578 9.86006607 14.6338063 8.96299681 14.6338063 7.52768598 15.5501578 6.63061671 16.4665093 5.9129613 17.9326717 5.9129613 18.6657529 6.63061671 19.2155638 7.16885827 19.5821044 9.14241066 19.7653747 10.7571353zM27.8364164 15.8473952C34.8280271 17.1269941 41.0523794 16.3254792 46.6098135 13.5834816 46.0719973 13.0350821 45.5292334 12.5148 44.9914172 11.9664004 44.9914172 11.2352011 45.3150965 10.11027 45.3150965 9.37907062 42.2674713 11.3898689 35.3658433 15.4817955 27.8364164 15.8473952z"/>
    </g>
    <g transform="translate(33.118 58.693)">
      <path fill="#07C" fill-rule="nonzero" d="M1.69168559,75.2700898 L27.0845419,75.2700898 L27.0845419,75.2700898 C28.0188341,75.2700898 28.7762275,74.5126964 28.7762275,73.5784042 L28.7762275,56.2180499 L28.7762275,56.2180499 C28.7762275,55.2837577 28.0188341,54.5263643 27.0845419,54.5263643 L1.69168559,54.5263643 L1.69168559,54.5263643 C0.757393437,54.5263643 1.07626816e-16,55.2837577 2.22044605e-16,56.2180499 L0,73.5784042 L0,73.5784042 C-1.96012753e-15,74.5126964 0.757393437,75.2700898 1.69168559,75.2700898 Z"/>
      <path fill="#003580" fill-rule="nonzero" d="M98.3187773,40.1187482 C98.3187773,34.9903727 93.6573002,30.8192494 87.927921,30.8192494 L12.7979157,30.8192494 C7.0617562,30.8192494 2.39801896,34.9903727 2.39801896,40.1187482 L2.39801896,50.970297 L31.7737512,50.970297 C32.6800554,50.970297 32.9727607,51.7102886 32.9727607,52.6263087 L32.9727607,77.6408013 C32.9727607,78.5568214 32.7270334,78.826157 31.8207292,78.826157 L2.39801896,78.826157 L2.39801896,92.6399809 C2.39801896,97.7661276 7.0617562,101.940594 12.7979157,101.940594 L87.927921,101.940594 C93.6573002,101.93948 98.3187773,97.7650132 98.3187773,92.6388665 L98.3187773,40.1187482 Z"/>
      <path fill="#07C" d="M85.2390164 25.9585419L70.1654327 9.80889272 70.1654327 9.80889272C69.7655275 9.38043935 69.1040937 9.32970228 68.6435203 9.69215031L45.5623602 27.85586 84.414554 27.85586 84.414554 27.85586C85.0374154 27.85586 85.5423444 27.350931 85.5423444 26.7280696 85.5423444 26.4424015 85.4339369 26.1673773 85.2390164 25.9585419zM65.3460166 5.11441615L61.8393434 1.10111317C61.2293067.400526566 60.3273931 0 59.3701474 0 58.8292759 0 58.0324934.125918051 57.2882763.735414999L23.3806848 27.85586 36.7710584 27.85586 65.3460166 5.11441615z"/>
    </g>
  </g>
</svg>
