<svg xmlns="http://www.w3.org/2000/svg" width="277" height="213" viewBox="0 0 277 213">
  <g fill="none" fill-rule="evenodd" transform="translate(11.957 1.991)">
    <g transform="translate(11.882 11.92)">
      <path fill="#07C" fill-rule="nonzero" d="M182.357931,98.6569034 C183.148969,98.6569034 186.70864,100.834927 189.081754,102.220942 C193.827982,104.992972 196.398855,106.378987 197.980931,106.378987 C198.178691,106.378987 198.57421,106.378987 198.771969,106.180985 C199.167488,105.982982 199.563007,105.78498 199.563007,105.388976 C199.760767,104.992972 199.760767,104.596967 199.563007,104.200963 C197.585412,99.6469141 196.201096,94.6968607 196.398855,93.3108457 C216.372564,81.8267219 225.073982,57.8684635 217.361362,36.2862307 C208.659944,11.7339659 181.566893,-1.13617289 157.044715,7.77392321 C138.653082,14.3079937 126.194234,32.1281859 125.798715,51.334393 C119.272652,45.9883354 111.757791,41.6322884 103.649651,38.8602585 C64.2955114,24.6041047 20.7884222,45.1963268 6.54973841,84.5987518 C-6.10686938,119.64513 8.32957388,158.255546 40.5643718,176.471743 C41.7509288,177.659755 39.3778149,186.371849 35.6203844,195.083943 C35.4226249,195.479948 35.4226249,195.875952 35.6203844,196.271956 C35.8181439,196.66796 36.0159034,196.865963 36.4114224,197.063965 C36.6091819,197.261967 37.0047009,197.261967 37.4002199,197.261967 C39.7733338,197.261967 43.9262833,195.083943 51.4411442,190.529894 C55.3963341,188.153869 61.329119,184.787832 62.7134355,184.787832 C99.4967018,192.311914 136.675487,171.521689 149.332095,136.079307 C154.078323,122.615162 155.06712,108.359008 152.100728,94.6968607 C161.593184,99.2509098 172.272197,100.834927 182.357931,98.6569034 Z M158.033513,10.5459531 C180.973614,2.22986341 206.28683,14.3079937 214.592729,37.2762414 C221.90983,57.6704614 213.603931,80.2427048 194.816779,90.736818 C192.839184,91.9248308 193.234703,95.6868714 195.607817,102.220942 C194.025741,101.428933 191.850387,100.24092 190.46607,99.448912 C185.917602,96.6768821 183.742247,95.4888692 182.357931,95.4888692 C182.160171,95.4888692 181.962412,95.4888692 181.962412,95.4888692 C171.481159,97.6668927 160.604386,95.8848735 151.30969,90.736818 C151.11193,89.7468073 150.716411,88.9547988 150.518652,87.9647881 C150.320892,87.1727795 150.123133,86.380771 149.925373,85.7867646 C149.529854,84.7967539 149.134336,83.6087411 148.738817,82.6187304 C148.541057,82.024724 148.145538,81.2327155 147.947779,80.6387091 C147.55226,79.4506963 146.958981,78.4606856 146.365703,77.2726728 C146.167943,76.6786664 145.772424,76.08466 145.574665,75.4906536 C144.783627,73.9066365 143.992589,72.5206215 143.003791,70.9366044 C142.806032,70.7386023 142.608272,70.5406002 142.608272,70.1445959 C141.817234,68.7585809 140.828437,67.372566 139.839639,65.986551 C139.44412,65.3925446 139.048601,64.7985382 138.653082,64.402534 C137.862044,63.4125233 137.268766,62.6205147 136.477728,61.6305041 C135.884449,61.0364977 135.48893,60.4424913 134.895652,59.8484848 C134.104614,59.0564763 133.511335,58.2644678 132.720297,57.4724592 C132.127019,56.8784528 131.53374,56.2844464 130.940462,55.69044 C130.347183,55.0964336 129.556145,54.3044251 128.962867,53.7104186 C128.171829,34.9002158 140.037399,17.0800236 158.033513,10.5459531 Z M146.563462,135.089296 C134.302373,169.145664 98.5079044,189.143879 63.306714,181.8178 C61.329119,181.421796 57.769448,183.401817 49.8590682,187.955867 C46.4971567,189.935888 41.9486883,192.509916 39.1800554,193.697928 C42.1464478,186.371849 45.7061187,175.877736 41.9486883,173.897715 C11.0982068,156.275525 -2.74495794,119.249126 9.31837136,85.5887625 C19.9973842,55.8884421 48.0792327,37.2762414 77.9409167,37.2762414 C86.0490561,37.2762414 94.3549549,38.6622563 102.463094,41.6322884 C111.362272,44.8003225 119.272652,49.5523738 126.194234,55.69044 C128.962867,58.0664656 131.53374,60.6404934 133.709095,63.4125233 C139.44412,70.342598 143.992589,78.2626834 146.761222,86.7767753 C147.3545,88.7567966 147.750019,90.3408137 148.145538,92.1228329 C152.298487,106.378987 151.507449,121.229147 146.563462,135.089296 Z"/>
      <path fill="#FF6C6C" d="M23.8685532,47.3961111 C24.8842363,48.4117421 26.0691999,48.9195576 27.4234441,48.9195576 C28.7776883,48.9195576 30.1319324,48.4117421 30.978335,47.3961111 L49.7684726,28.6069385 C52.9848025,25.3907738 54.6776077,21.1589782 54.6776077,16.7579107 C54.6776077,12.1875714 52.9848025,7.9557758 49.7684726,4.90888294 C46.5521428,1.69271825 42.3201298,0 37.9188363,0 C34.0253843,0 30.3012129,1.3541746 27.4234441,3.72398016 C24.3763948,1.3541746 20.6522233,0 16.7587714,0 C12.3574779,0 8.12546492,1.69271825 4.90913506,4.90888294 C1.69280519,8.12504762 0,12.3568433 0,16.7579107 C0,21.32825 1.69280519,25.3907738 4.90913506,28.6069385 L23.8685532,47.3961111 Z" transform="translate(143.975 30.78)"/>
      <g transform="translate(32.971 62.111)">
        <path fill="#003580" d="M56.0514169 35.1781088L85.5628746 35.1781088C86.8751621 35.1781088 87.9237912 36.0661083 87.9237912 37.0387495L87.9237912 42.76146C87.9237912 43.7341011 86.8751621 44.522294 85.5628746 44.522294L56.0514169 44.522294 56.0514169 35.1781088zM31.8723743 35.1781088L2.36091662 35.1781088C1.04862918 35.1781088-1.71224517e-14 36.0661083-1.71224517e-14 37.0387495L-2.13162821e-14 42.76146C-2.13162821e-14 43.7341011 1.04862918 44.522294 2.36091662 44.522294L31.8723743 44.522294 31.8723743 35.1781088z"/>
        <path fill="#07C" d="M36.8180876,89.7039023 L36.8180876,38.0086947 C36.8180876,36.5630678 38.315446,35.1781088 39.6322586,35.1781088 L48.7237687,35.1781088 C50.0405812,35.1781088 51.1057037,36.5630678 51.1057037,38.0086947 L51.1057037,89.7039023 C51.1057037,91.1495293 50.0405812,92.3425356 48.7237687,92.3425356 L39.6322586,92.3425356 C38.315446,92.3425356 36.8180876,91.510936 36.8180876,89.7039023 Z"/>
        <path fill="#003580" d="M32.2808041,49.7133798 L32.2808041,88.0465883 L9.56796741,88.0465883 C6.58662145,88.0465883 3.58675601,85.8320041 3.58675601,82.4659783 L3.58675601,49.7133798 L32.2808041,49.7133798 Z"/>
        <path fill="#003580" d="M84.8865589,49.7133798 L84.8865589,88.0465883 L62.1737222,88.0465883 C59.1923763,88.0465883 56.1925108,85.8320041 56.1925108,82.4659783 L56.1925108,49.7133798 L84.8865589,49.7133798 Z" transform="matrix(-1 0 0 1 141.08 0)"/>
        <path fill="#07C" d="M37.0631454 29.3488628C23.6754956 31.7186385 11.571014 30.2342589 1.19558534 25.1561681 2.19965908 24.1405499 3.18047494 23.1770043 4.18454868 22.1613862 4.18454868 20.8072286 4.18454868 18.7238927 4.18454868 17.3697351 9.87429989 21.0936684 22.6714218 28.671784 37.0631454 29.3488628zM66.2557743 3.86537667C70.5483541 8.22060372 70.0497733 15.0753161 65.7571935 19.7655606 61.4646138 23.7857702 51.1082206 23.8871768 44.8344501 24.5572117 45.8250455 18.5268973 45.3242117 7.94896535 49.6167915 3.5937383 54.2395697-.761488749 61.6329961-.489850379 66.2557743 3.86537667zM52.3874397 17.9361102C56.349821 17.6010927 60.3122024 16.9310578 61.6329961 15.590988 63.6141868 13.5808832 63.6141868 10.565726 61.6329961 8.55562118 59.6518055 6.54551639 56.6800195 6.54551639 54.6988288 8.55562118 53.3780351 9.56067358 52.7176382 13.9159006 52.3874397 17.9361102zM24.5094994 8.38538937C20.7862641 11.7080758 20.7862641 17.9074747 24.5094994 21.5624298 26.7660057 23.7775541 32.5446682 25.175119 41.8454868 25.7551245 41.5379446 16.3904254 40.143095 10.6005137 37.6609381 8.38538937 33.9377028 4.73043424 28.2327348 4.73043424 24.5094994 8.38538937zM36.5040259 19.9218664C33.1192665 19.5895977 29.7345071 19.2573291 28.7190792 18.2605231 27.0266995 16.5991799 27.0266995 13.9410307 28.7190792 12.2796875 30.4114589 10.9506129 33.1192665 10.9506129 34.4731702 12.2796875 35.4885981 13.2764934 36.16555 16.9314485 36.5040259 19.9218664zM51.4101695 29.3488628C64.3227473 31.7186385 75.8183004 30.2342589 86.0821443 25.1561681 85.0888691 24.1405499 84.0864561 23.1770043 83.0931809 22.1613862 83.0931809 20.8072286 83.6909736 18.7238927 83.6909736 17.3697351 78.0624141 21.0936684 65.3160225 28.671784 51.4101695 29.3488628z"/>
      </g>
    </g>
    <g fill="#CCE1FF" fill-rule="nonzero">
      <path d="M30.7794673 188.486329C30.2083321 187.883686 29.2564401 187.883686 28.6853049 188.68721 28.1141697 189.289852 28.1141697 190.294256 28.8756833 190.896898 30.0179537 192.102183 31.3506025 193.106587 32.492873 194.311872 32.6832514 194.512753 33.0640082 194.713634 33.444765 194.713634 33.8255218 194.713634 34.2062786 194.512753 34.5870354 194.110991 35.1581706 193.508349 34.9677922 192.503945 34.396657 191.901303 33.0640082 190.696018 31.9217378 189.691614 30.7794673 188.486329zM44.8071216 48.2623537C45.0018868 48.2623537 45.3914172 48.2623537 45.5861824 48.0421292 48.3128953 46.2803335 51.2343733 44.7387622 53.9610861 43.197191 54.7401469 42.7567421 55.1296773 41.8758442 54.7401469 40.9949463 54.3506165 40.1140485 53.5715557 39.6735995 52.7924949 40.1140485 49.8710169 41.6556197 46.9495388 43.197191 44.0280608 44.9589867 43.249 45.3994356 43.0542348 46.500558 43.4437652 47.1612314 43.8332956 48.0421292 44.4175912 48.2623537 44.8071216 48.2623537zM63.2779792 39.9412582C63.4877139 39.9412582 63.4877139 39.9412582 63.6974486 39.9412582 66.8434694 38.988236 70.199225 38.4164227 73.5549805 37.8446094 74.3939194 37.654005 75.0231235 36.8915873 74.8133888 36.1291695 74.6036541 35.3667518 73.7647152 34.7949385 72.9257763 34.9855429 69.5700208 35.5573562 66.0045305 36.319774 62.648775 37.2727961 61.8098361 37.4634006 61.3903667 38.2258183 61.6001014 38.988236 62.0195709 39.5600494 62.648775 39.9412582 63.2779792 39.9412582zM82.963226 34.9486009C82.963226 34.9486009 82.963226 34.9486009 82.963226 34.9486009 86.498 34.7458231 89.8248462 34.7458231 93.1516923 34.7458231 93.9834039 34.7458231 94.8151154 34.1374897 94.8151154 33.3263785 94.8151154 32.5152673 94.1913318 31.7041561 93.3596202 31.7041561 89.8248462 31.5013783 86.2900722 31.7041561 82.963226 31.9069339 82.1315145 31.9069339 81.5077308 32.7180451 81.5077308 33.5291563 81.5077308 34.3402675 82.1315145 34.9486009 82.963226 34.9486009zM1.87135096 129.809089C2.7030625 129.809089 3.32684616 128.989781 3.32684616 128.170474 3.11891827 126.327031 3.11891827 124.483588 3.11891827 122.844972 3.11891827 121.206357 3.11891827 119.772568 3.32684616 118.133952 3.32684616 117.314644 2.7030625 116.495336 1.87135096 116.495336 1.03963942 116.495336.207927885 117.109817.207927885 117.929125.207927885 119.567741 0 121.206357 0 122.640145 0 124.483588 0 126.327031.207927885 128.170474.207927885 128.989781.831711539 129.809089 1.87135096 129.809089 1.66342308 129.809089 1.87135096 129.809089 1.87135096 129.809089zM102.767866 36.2953395C106.123621 36.6916794 109.479377 37.4843593 112.835132 38.2770391 113.044867 38.2770391 113.044867 38.2770391 113.254602 38.2770391 113.883806 38.2770391 114.51301 37.8806992 114.722745 37.0880194 114.93248 36.2953395 114.51301 35.5026597 113.674071 35.3044897 110.318316 34.5118099 106.752825 33.71913 103.39707 33.3227901 102.558131 33.1246202 101.719192 33.71913 101.509457 34.5118099 101.299723 35.5026597 101.928927 36.2953395 102.767866 36.2953395zM28.6918228 55.4881517C28.1403155 56.1249632 28.1403155 57.1863157 28.6918228 57.8231272 28.8756585 58.2476682 29.4271658 58.2476682 29.7948373 58.2476682 30.1625088 58.2476682 30.5301803 58.0353977 30.7140161 57.8231272 32.9200451 55.4881517 35.30991 53.3654466 37.6997748 51.2427416 38.2512821 50.8182006 38.4351178 49.7568481 38.0674463 48.9077661 37.6997748 48.2709545 36.780596 48.058684 36.045253 48.483225 33.4715524 50.8182006 31.0816876 53.1531761 28.6918228 55.4881517zM5.7882362 89.6736721C5.97122762 89.6736721 6.15421904 89.867831 6.33721045 89.867831 6.8861847 89.867831 7.43515896 89.4795132 7.61815037 88.8970365 8.71609887 85.9846531 9.99703879 83.0722697 11.4609701 80.3540452 11.826953 79.5774096 11.6439615 78.800774 10.9119959 78.4124563 10.1800302 78.0241385 9.44806454 78.2182974 9.08208171 78.9949329 7.61815037 81.9073163 6.33721045 84.8196998 5.05627054 87.7320832 4.87327912 88.5087187 5.05627054 89.4795132 5.7882362 89.6736721zM16.7697261 71.561421C17.2024857 71.561421 17.8516251 71.3758596 18.0680048 71.0047369 20.0154229 68.5924392 22.1792207 66.1801415 24.5593984 63.9534051 25.2085377 63.396721 24.9921579 62.4689142 24.3430186 61.9122301 23.6938792 61.355546 22.6119803 61.5411074 21.962841 62.0977915 19.5826633 64.5100892 17.4188655 66.9223869 15.2550677 69.520246 14.8223081 70.0769301 14.8223081 71.0047369 15.6878272 71.3758596 16.1205868 71.561421 16.5533464 71.561421 16.7697261 71.561421zM2.97938123 135.943552C2.78328951 135.206168 1.99892264 134.653129 1.21455578 134.837476.43018891 135.021822-.158086241 135.759206.0380054761 136.49659.626280627 139.446128 1.41064749 142.580012 2.19501436 145.52955 2.39110608 146.082588 2.97938123 146.45128 3.56765638 146.45128 3.7637481 146.45128 3.7637481 146.45128 3.95983981 146.45128 4.74420668 146.266934 5.13639011 145.52955 4.9402984 144.792165 4.35202325 141.842628 3.56765638 138.89309 2.97938123 135.943552zM1.38317617 108.174241C1.38317617 108.174241 1.58077277 108.174241 1.58077277 108.174241 2.37115915 108.174241 2.96394894 107.612861 2.96394894 107.051482 3.55673873 104.057456 4.14952852 101.063431 4.9399149 98.2565327 5.1375115 97.5080264 4.74231831 96.7595202 3.95193192 96.5723936 3.16154554 96.385267 2.37115915 96.7595202 2.17356256 97.5080264 1.18557958 100.502052.592789788 103.683203 0 106.677228 0 107.238608.592789788 107.987114 1.38317617 108.174241zM17.8354083 173.640596C17.3960698 173.086272 16.2977237 172.901498 15.638716 173.271047 14.9797083 173.640596 14.7600391 174.564469 15.1993776 175.303567 17.3960698 177.890412 19.5927621 180.292481 22.0091236 182.509776 22.2287928 182.879326 22.8878005 183.0641 23.3271389 183.0641 23.7664774 183.0641 24.2058158 182.879326 24.4254851 182.694551 25.0844928 182.140227 25.0844928 181.216354 24.6451543 180.662031 22.2287928 178.444735 20.0321005 176.042666 17.8354083 173.640596zM8.24464465 155.704697C7.80440639 154.925263 6.92392987 154.535547 6.04345335 154.925263 5.16297683 155.31498 4.72273858 156.094414 5.16297683 156.873847 6.48369161 159.796724 8.24464465 162.914458 10.0055977 165.642476 10.2257168 166.032192 10.8860742 166.421909 11.5464316 166.421909 11.7665507 166.421909 11.9866698 166.421909 12.4269081 166.227051 13.3073846 165.837334 13.5275038 164.863042 13.0872655 164.278467 11.3263125 161.550449 9.78547855 158.627573 8.24464465 155.704697zM122.461644 41.0538362C123.971133 41.6581617 125.696263 42.2624872 127.421393 43.0682546 127.637034 43.0682546 127.852676 43.2696964 128.068317 43.2696964 128.715241 43.2696964 129.362165 42.8668127 129.577806 42.4639291 130.009088 41.6581617 129.577806 40.8523944 128.715241 40.4495107 126.990111 39.6437434 125.26498 39.0394179 123.755492 38.4350923 122.892927 38.0322087 122.030361 38.4350923 121.599079 39.2408597 121.167796 39.8451852 121.599079 40.6509525 122.461644 41.0538362zM130.396134 34.7638956C130.569499 34.9486009 130.742863 34.9486009 131.089592 34.9486009 131.609685 34.9486009 131.956414 34.7638956 132.303143 34.2097796 132.996601 32.9168422 133.690058 31.6239047 134.55688 30.3309673 134.903609 29.7768513 134.730245 28.8533246 134.210152 28.4839139 133.690058 28.1145032 132.823236 28.2992085 132.476507 28.8533246 131.609685 30.146262 130.916227 31.4391994 130.049405 32.9168422 129.529312 33.4709582 129.702677 34.3944849 130.396134 34.7638956zM235.174325 27.7291716C235.381002 28.1042069 236.001033 28.2917246 236.414387 28.2917246 236.827741 28.2917246 237.034418 28.2917246 237.241095 28.1042069 237.861126 27.7291716 238.067803 26.7915834 237.654449 26.0415128 235.587679 23.4162658 233.314232 20.9785365 230.627432 18.7283247 230.007401 18.1657718 228.974016 18.1657718 228.353985 18.7283247 227.733954 19.2908777 227.733954 20.2284659 228.353985 20.7910188 231.040786 23.0412305 233.107555 25.2914423 235.174325 27.7291716zM235.158834 104.437047C235.36149 104.641425 235.766802 104.845803 235.969459 104.845803 236.374771 104.845803 236.98274 104.641425 237.185396 104.232669 239.211958 101.371381 241.035864 98.5100916 242.657113 95.4444248 243.062426 94.6269137 242.859769 93.8094025 242.049145 93.400647 241.23852 92.9918914 240.427895 93.1962692 240.022583 94.0137803 238.401333 96.8750693 236.780083 99.7363583 234.753521 102.393269 234.348209 102.802025 234.550865 103.823914 235.158834 104.437047zM245.081166 45.6273401C245.275407 46.2098168 245.85813 46.5981346 246.440853 46.5981346 246.635094 46.5981346 246.829334 46.5981346 246.829334 46.5981346 247.606298 46.4039757 247.99478 45.4331812 247.800539 44.8507045 246.829334 41.7441622 245.469648 38.6376199 243.91572 35.7252365 243.527238 34.9486009 242.750274 34.7544421 241.97331 35.1427598 241.196346 35.5310776 241.002105 36.3077132 241.390587 37.0843488 242.750274 39.6084144 244.109961 42.7149567 245.081166 45.6273401zM246.218185 54.9544025C246.547712 58.2727914 246.87724 61.5911803 246.87724 65.1169686 246.87724 65.9465658 247.371532 66.5687637 248.195351 66.5687637 248.854406 66.5687637 249.513462 65.7391665 249.513462 64.9095692 249.513462 61.383781 249.348698 57.8579928 248.854406 54.5396039 248.689642 53.7100066 248.030587 53.0878087 247.371532 53.295208 246.547712 53.295208 246.053421 53.9174059 246.218185 54.9544025zM213.779739 9.6759707C216.813399 11.1034325 219.644815 12.9387406 222.273986 14.7740487 222.47623 14.9779718 222.880718 14.9779718 223.082962 14.9779718 223.48745 14.9779718 224.094182 14.7740487 224.296426 14.3662025 224.700914 13.7544331 224.700914 12.7348175 223.891938 12.1230481 221.060522 10.0838169 218.026863 8.24850886 214.993203 6.82104702 214.184227 6.41320078 213.375252 6.82104702 212.970764 7.43281638 212.76852 8.24850886 213.173008 9.26812446 213.779739 9.6759707zM246.835406 74.510233C246.269373 77.8286219 245.514662 81.1470108 244.571274 84.4653997 244.382596 85.294997 244.759952 86.1245942 245.514662 86.5393928 245.70334 86.5393928 245.892018 86.5393928 245.892018 86.5393928 246.458051 86.5393928 247.024084 86.1245942 247.212761 85.5023963 248.156149 82.1840074 249.099538 78.6582191 249.476893 75.1324309 249.665571 74.3028337 249.099538 73.4732364 248.344827 73.2658371 247.590116 73.0584378 246.835406 73.6806357 246.835406 74.510233zM194.256135 4.47700681C197.611891 4.87334673 200.967646 5.66602657 204.323402 6.65687637 204.533136 6.65687637 204.533136 6.65687637 204.742871 6.65687637 205.372075 6.65687637 206.001279 6.26053645 206.211014 5.66602657 206.420749 4.87334673 206.001279 4.08066689 205.16234 3.88249693 201.806585 2.89164712 198.241095 2.09896728 194.675604 1.70262736 193.836666 1.5044574 192.997727 2.09896728 192.997727 2.89164712 192.787992 3.68432697 193.417196 4.47700681 194.256135 4.47700681zM139.803987 23.2990673C140.180175 23.2990673 140.556363 23.0944979 140.744458 22.8899286 142.813494 20.4350962 145.070624 18.1848333 147.515848 16.1391396 148.080131 15.5254315 148.268225 14.7071541 147.703942 13.8888767 147.13966 13.2751686 146.387283 13.0705992 145.634906 13.6843073 143.001588 15.7300009 140.744458 18.1848333 138.487327 20.844235 137.923045 21.457943 137.923045 22.4807899 138.487327 23.0944979 139.05161 23.2990673 139.427798 23.2990673 139.803987 23.2990673zM156.02898 9.98531456C156.21907 9.98531456 156.409161 9.98531456 156.789342 9.80170107 159.450609 8.3327932 162.301966 7.2311123 165.343414 6.1294314 166.103776 5.94581791 166.483957 5.0277505 166.293866 4.29329656 166.103776 3.55884263 165.153323 3.19161566 164.392961 3.37522914 161.351513 4.47691005 158.310066 5.76220443 155.458708 7.2311123 154.698346 7.59833927 154.508256 8.51640669 154.888437 9.06724714 155.078527 9.80170107 155.458708 9.98531456 156.02898 9.98531456zM174.668524 3.32843819C174.668524 3.32843819 174.872645 3.32843819 174.872645 3.32843819 178.13857 2.82917246 181.404496 2.66275055 184.874542 2.49632864 185.691024 2.49632864 186.303385 1.830641 186.303385 1.16495336 186.303385.499265728 185.486903 0 184.670422 0 181.200376 0 177.73033.332843819 174.260284.832109546 173.443802.998531456 172.831441 1.66421909 173.035562 2.32990673 173.443802 2.99559437 174.056163 3.32843819 174.668524 3.32843819zM228.627498 108.638674C227.455433 109.877163 226.283368 110.909237 225.111304 111.941311 224.525271 112.560555 224.329927 113.386214 224.91596 114.211873 225.111304 114.624703 225.697336 114.831117 226.088024 114.831117 226.478713 114.831117 226.674057 114.624703 227.064745 114.418288 228.432154 113.386214 229.604219 112.147725 230.776283 110.909237 231.362316 110.289992 231.362316 109.257919 230.776283 108.638674 230.190251 108.01943 229.21353 108.01943 228.627498 108.638674z"/>
    </g>
  </g>
</svg>
